<svg xmlns="http://www.w3.org/2000/svg" viewBox="0 0 64 64">
  <defs>
    <linearGradient id="bg" x1="10" y1="8" x2="54" y2="58" gradientUnits="userSpaceOnUse">
      <stop offset="0" stop-color="#5f646c"/>
      <stop offset="0.48" stop-color="#24262b"/>
      <stop offset="1" stop-color="#111317"/>
    </linearGradient>
    <linearGradient id="glass" x1="18" y1="16" x2="48" y2="48" gradientUnits="userSpaceOnUse">
      <stop offset="0" stop-color="#ffffff" stop-opacity="0.76"/>
      <stop offset="0.46" stop-color="#ffffff" stop-opacity="0.18"/>
      <stop offset="1" stop-color="#ffffff" stop-opacity="0.08"/>
    </linearGradient>
    <filter id="soft" x="-20%" y="-20%" width="140%" height="140%">
      <feGaussianBlur stdDeviation="1.1"/>
    </filter>
  </defs>
  <rect width="64" height="64" rx="16" fill="url(#bg)"/>
  <path d="M13 12h38a8 8 0 0 1 8 8v28a8 8 0 0 1-8 8H13z" fill="#ffffff" opacity="0.08"/>
  <rect x="15" y="15" width="34" height="34" rx="9" fill="url(#glass)" stroke="#ffffff" stroke-opacity="0.44" stroke-width="1.5"/>
  <path d="M22 18h18c-3.8 6.1-9.4 11.5-17.8 16.4A17 17 0 0 1 22 18z" fill="#ffffff" opacity="0.34" filter="url(#soft)"/>
  <path d="M18 47c8-2 16.7-3.2 26-3.5" fill="none" stroke="#ffffff" stroke-opacity="0.58" stroke-width="3.4" stroke-linecap="round"/>
  <path d="M51 16v32" stroke="#ffffff" stroke-opacity="0.22" stroke-width="1.4"/>
  <circle cx="24" cy="25" r="2.4" fill="#ffffff" opacity="0.74"/>
</svg>
